<?xml version="1.0" standalone="no"?>
<!DOCTYPE svg PUBLIC "-//W3C//DTD SVG 20010904//EN"
 "http://www.w3.org/TR/2001/REC-SVG-20010904/DTD/svg10.dtd">
<svg version="1.0" xmlns="http://www.w3.org/2000/svg"
 width="430.000000pt" height="430.000000pt" viewBox="0 0 430.000000 430.000000"
 preserveAspectRatio="xMidYMid meet">
<metadata>
Created by potrace 1.11, written by Peter Selinger 2001-2013
</metadata>
<g transform="translate(0.000000,430.000000) scale(0.100000,-0.100000)"
fill="#000000" stroke="none">
<path d="M2783 3698 c-942 -1637 -1435 -2493 -1437 -2495 -1 -2 -304 107 -672
241 l-669 244 -3 -96 c-1 -52 1 -99 5 -103 4 -4 298 -113 653 -242 1939 -706
2626 -957 2912 -1061 l318 -116 205 0 205 0 0 28 c0 27 -6 29 -558 229 -1176
427 -2205 803 -2210 807 -3 4 256 457 1465 2556 154 267 285 495 292 508 l12
22 -109 0 -109 0 -300 -522z"/>
<path d="M160 3790 l0 -180 320 0 320 0 0 -885 0 -885 220 0 220 0 0 885 0
885 330 0 330 0 0 180 0 180 -870 0 -870 0 0 -180z"/>
<path d="M3206 3019 c-191 -28 -346 -99 -457 -209 -124 -123 -166 -233 -157
-410 6 -107 27 -173 83 -257 102 -153 260 -252 590 -367 310 -109 395 -159
432 -254 52 -136 -12 -270 -152 -319 -68 -24 -267 -24 -346 0 -132 40 -208
127 -230 263 l-12 74 -218 0 -219 0 0 -30 c0 -17 7 -66 16 -108 66 -327 366
-538 795 -559 282 -14 522 58 667 200 114 112 154 211 156 382 1 132 -22 218
-83 313 -106 163 -271 265 -609 378 -202 67 -300 112 -360 168 -54 49 -72 88
-72 156 0 60 21 114 58 153 116 123 416 128 539 9 47 -46 71 -94 85 -172 l12
-60 218 0 218 0 0 23 c-1 57 -30 178 -57 237 -95 206 -284 339 -550 385 -92
16 -251 18 -347 4z"/>
</g>
</svg>
